<svg xmlns="http://www.w3.org/2000/svg" xmlns:xlink="http://www.w3.org/1999/xlink" width="851" zoomAndPan="magnify" viewBox="0 0 638.25 236.249991" height="315" preserveAspectRatio="xMidYMid meet" version="1.0"><defs><g/><clipPath id="00a26f9224"><rect x="0" width="428" y="0" height="126"/></clipPath><clipPath id="b8f801ac52"><path d="M 26 45.175781 L 163.992188 45.175781 L 163.992188 169.28125 L 26 169.28125 Z M 26 45.175781 " clip-rule="nonzero"/></clipPath><clipPath id="929869ea75"><path d="M 24.1875 61 L 133 61 L 133 169.28125 L 24.1875 169.28125 Z M 24.1875 61 " clip-rule="nonzero"/></clipPath></defs><g transform="matrix(1, 0, 0, 1, 170, 46)"><g clip-path="url(#00a26f9224)"><g fill="#38bad6" fill-opacity="1"><g transform="translate(0.960892, 104.106153)"><g><path d="M 37.65625 -71.8125 L 47.296875 -71.8125 C 48.390625 -71.8125 48.9375 -71.265625 48.9375 -70.171875 L 48.9375 -1.640625 C 48.9375 -0.546875 48.390625 0 47.296875 0 L 39.1875 0 C 38.363281 0 37.75 -0.441406 37.34375 -1.328125 L 18.0625 -40.53125 L 18.0625 -1.640625 C 18.0625 -0.546875 17.515625 0 16.421875 0 L 6.765625 0 C 5.671875 0 5.125 -0.546875 5.125 -1.640625 L 5.125 -70.171875 C 5.125 -71.265625 5.671875 -71.8125 6.765625 -71.8125 L 14.875 -71.8125 C 15.695312 -71.8125 16.3125 -71.367188 16.71875 -70.484375 L 36.015625 -31.296875 L 36.015625 -70.171875 C 36.015625 -71.265625 36.5625 -71.8125 37.65625 -71.8125 Z M 37.65625 -71.8125 "/></g></g></g><g fill="#38bad6" fill-opacity="1"><g transform="translate(55.020711, 104.106153)"><g><path d="M 46.0625 -70.171875 L 46.0625 -59.921875 C 46.0625 -58.753906 45.515625 -58.171875 44.421875 -58.171875 L 19.078125 -58.171875 L 19.078125 -42.375 L 38.375 -42.375 C 39.46875 -42.375 40.015625 -41.789062 40.015625 -40.625 L 40.015625 -30.46875 C 40.015625 -29.300781 39.46875 -28.71875 38.375 -28.71875 L 19.078125 -28.71875 L 19.078125 -13.546875 L 44.421875 -13.546875 C 45.515625 -13.546875 46.0625 -13 46.0625 -11.90625 L 46.0625 -1.640625 C 46.0625 -0.546875 45.515625 0 44.421875 0 L 6.671875 0 C 5.640625 0 5.125 -0.546875 5.125 -1.640625 L 5.125 -70.171875 C 5.125 -71.265625 5.640625 -71.8125 6.671875 -71.8125 L 44.421875 -71.8125 C 45.515625 -71.8125 46.0625 -71.265625 46.0625 -70.171875 Z M 46.0625 -70.171875 "/></g></g></g><g fill="#38bad6" fill-opacity="1"><g transform="translate(104.156419, 104.106153)"><g><path d="M 42.46875 -71.8125 L 4.71875 -71.8125 C 3.625 -71.8125 3.078125 -71.265625 3.078125 -70.171875 L 3.078125 -59.921875 C 3.078125 -58.816406 3.625 -58.265625 4.71875 -58.265625 L 16.625 -58.265625 L 16.625 -1.640625 C 16.625 -0.546875 17.171875 0 18.265625 0 L 28.9375 0 C 30.03125 0 30.578125 -0.546875 30.578125 -1.640625 L 30.578125 -58.265625 L 42.46875 -58.265625 C 43.5625 -58.265625 44.109375 -58.816406 44.109375 -59.921875 L 44.109375 -70.171875 C 44.109375 -71.265625 43.5625 -71.8125 42.46875 -71.8125 Z M 42.46875 -71.8125 "/></g></g></g><g fill="#38bad6" fill-opacity="1"><g transform="translate(148.778563, 104.106153)"><g><path d="M 42.46875 -71.8125 L 4.71875 -71.8125 C 3.625 -71.8125 3.078125 -71.265625 3.078125 -70.171875 L 3.078125 -59.921875 C 3.078125 -58.816406 3.625 -58.265625 4.71875 -58.265625 L 16.625 -58.265625 L 16.625 -1.640625 C 16.625 -0.546875 17.171875 0 18.265625 0 L 28.9375 0 C 30.03125 0 30.578125 -0.546875 30.578125 -1.640625 L 30.578125 -58.265625 L 42.46875 -58.265625 C 43.5625 -58.265625 44.109375 -58.816406 44.109375 -59.921875 L 44.109375 -70.171875 C 44.109375 -71.265625 43.5625 -71.8125 42.46875 -71.8125 Z M 42.46875 -71.8125 "/></g></g></g><g fill="#38bad6" fill-opacity="1"><g transform="translate(195.965492, 104.106153)"><g><path d="M 48.015625 -71.8125 L 61.5625 -71.8125 C 62.925781 -71.8125 63.609375 -71.128906 63.609375 -69.765625 L 63.609375 -2.046875 C 63.609375 -0.679688 62.925781 0 61.5625 0 L 52.015625 0 C 50.648438 0 49.96875 -0.679688 49.96875 -2.046875 L 49.96875 -42.375 L 49.25 -42.375 L 39.59375 -1.75 C 39.257812 -0.582031 38.507812 0 37.34375 0 L 31.296875 0 C 30.128906 0 29.375 -0.582031 29.03125 -1.75 L 19.390625 -42.375 L 18.671875 -42.375 L 18.671875 -2.046875 C 18.671875 -0.679688 17.988281 0 16.625 0 L 7.1875 0 C 5.8125 0 5.125 -0.679688 5.125 -2.046875 L 5.125 -69.765625 C 5.125 -71.128906 5.8125 -71.8125 7.1875 -71.8125 L 20.71875 -71.8125 C 21.882812 -71.8125 22.640625 -71.234375 22.984375 -70.078125 L 34.375 -24.3125 L 45.75 -70.078125 C 46.09375 -71.234375 46.847656 -71.8125 48.015625 -71.8125 Z M 48.015625 -71.8125 "/></g></g></g><g fill="#38bad6" fill-opacity="1"><g transform="translate(263.668343, 104.106153)"><g><path d="M 53.546875 0 L 43.609375 0 C 42.710938 0 42.160156 -0.476562 41.953125 -1.4375 L 38.671875 -14.359375 L 19.390625 -14.359375 L 16.203125 -1.4375 C 16.003906 -0.476562 15.457031 0 14.5625 0 L 4.515625 0 C 3.285156 0 2.84375 -0.582031 3.1875 -1.75 L 20.21875 -70.375 C 20.414062 -71.332031 20.992188 -71.8125 21.953125 -71.8125 L 36.21875 -71.8125 C 37.175781 -71.8125 37.753906 -71.332031 37.953125 -70.375 L 54.984375 -1.75 C 55.328125 -0.582031 54.847656 0 53.546875 0 Z M 35.5 -26.265625 L 29.03125 -54.171875 L 22.578125 -26.265625 Z M 35.5 -26.265625 "/></g></g></g><g fill="#38bad6" fill-opacity="1"><g transform="translate(320.805435, 104.106153)"><g><path d="M 46.171875 -57.046875 L 46.171875 -36.421875 C 46.171875 -30.472656 44.253906 -26.300781 40.421875 -23.90625 L 45.75 -1.84375 C 46.09375 -0.613281 45.617188 0 44.328125 0 L 34.265625 0 C 33.304688 0 32.722656 -0.476562 32.515625 -1.4375 L 27.59375 -21.640625 L 18.46875 -21.640625 L 18.46875 -1.640625 C 18.46875 -0.546875 17.921875 0 16.828125 0 L 6.765625 0 C 5.671875 0 5.125 -0.546875 5.125 -1.640625 L 5.125 -70.171875 C 5.125 -71.265625 5.671875 -71.8125 6.765625 -71.8125 L 31.390625 -71.8125 C 36.242188 -71.8125 39.921875 -70.5625 42.421875 -68.0625 C 44.921875 -65.570312 46.171875 -61.898438 46.171875 -57.046875 Z M 18.46875 -34.875 L 28.71875 -34.875 C 31.457031 -34.875 32.828125 -36.242188 32.828125 -38.984375 L 32.828125 -54.484375 C 32.828125 -57.210938 31.457031 -58.578125 28.71875 -58.578125 L 18.46875 -58.578125 Z M 18.46875 -34.875 "/></g></g></g><g fill="#38bad6" fill-opacity="1"><g transform="translate(372.095556, 104.106153)"><g><path d="M 49.046875 0 L 38.171875 0 C 37.140625 0 36.351562 -0.507812 35.8125 -1.53125 L 22.875 -26.875 L 19.078125 -19.59375 L 19.078125 -2.046875 C 19.078125 -0.679688 18.394531 0 17.03125 0 L 7.1875 0 C 5.8125 0 5.125 -0.679688 5.125 -2.046875 L 5.125 -69.765625 C 5.125 -71.128906 5.8125 -71.8125 7.1875 -71.8125 L 17.03125 -71.8125 C 18.394531 -71.8125 19.078125 -71.128906 19.078125 -69.765625 L 19.078125 -43.09375 L 34.875 -70.28125 C 35.425781 -71.300781 36.210938 -71.8125 37.234375 -71.8125 L 48.015625 -71.8125 C 48.765625 -71.8125 49.289062 -71.570312 49.59375 -71.09375 C 49.90625 -70.613281 49.859375 -70.035156 49.453125 -69.359375 L 32.015625 -38.671875 L 50.578125 -2.359375 C 50.921875 -1.671875 50.953125 -1.101562 50.671875 -0.65625 C 50.398438 -0.21875 49.859375 0 49.046875 0 Z M 49.046875 0 "/></g></g></g></g></g><g clip-path="url(#b8f801ac52)"><path fill="#FFFFFF" d="M 129.789062 45.175781 C 118.933594 55.972656 108.097656 66.785156 97.324219 77.660156 C 96.15625 78.835938 95.582031 78.847656 94.421875 77.683594 C 83.632812 66.816406 72.785156 56.007812 61.960938 45.175781 L 26.863281 45.175781 C 35.648438 53.945312 44.445312 62.710938 53.230469 71.484375 C 67.027344 85.273438 80.824219 99.054688 94.578125 112.886719 C 95.648438 113.960938 96.257812 113.859375 97.253906 112.855469 C 110.664062 99.382812 124.109375 85.941406 137.546875 72.496094 C 137.953125 72.089844 138.40625 71.734375 139.050781 71.164062 C 139.125 71.964844 139.195312 72.386719 139.195312 72.8125 C 139.226562 78.402344 139.261719 84.007812 139.277344 169.421875 L 163.945312 169.421875 C 164.117188 75.175781 164.054688 59.824219 164.09375 45.175781 Z M 129.789062 45.175781 " fill-opacity="1" fill-rule="nonzero"/></g><g clip-path="url(#929869ea75)"><path fill="#FFFFFF" d="M 49.070312 169.417969 C 49.078125 153.824219 49.085938 138.234375 49.101562 122.644531 C 49.101562 122.011719 49.160156 121.386719 49.214844 120.367188 C 49.964844 121.027344 50.394531 121.363281 50.777344 121.742188 C 59.761719 130.738281 68.726562 139.75 77.71875 148.734375 C 84.625 155.636719 91.542969 162.535156 98.476562 169.414062 L 132.691406 169.414062 C 96.679688 133.347656 60.660156 97.257812 24.496094 61.03125 C 24.457031 61.804688 24.394531 62.511719 24.390625 63.21875 C 24.339844 72.847656 24.253906 82.476562 24.257812 92.105469 C 24.28125 117.875 24.34375 143.644531 24.363281 169.417969 Z M 49.070312 169.417969 " fill-opacity="1" fill-rule="nonzero"/></g></svg>